<?xml version="1.0" encoding="UTF-8"?>
<svg width="800px" height="800px" version="1.1" viewBox="0 0 256 256" xmlns="http://www.w3.org/2000/svg">
<title>Group</title>
<desc>Created with Sketch.</desc>
<defs>
<linearGradient id="d" x1="62.102%" x2="108.2%" y2="37.864%">
<stop stop-color="#4285EB" offset="0"></stop>
<stop stop-color="#2EC7FF" offset="1"></stop>
</linearGradient>
<linearGradient id="c" x1="69.644%" x2="54.043%" y2="108.46%">
<stop stop-color="#29CDFF" offset="0"></stop>
<stop stop-color="#148EFF" offset=".3786"></stop>
<stop stop-color="#0A60FF" offset="1"></stop>
</linearGradient>
<linearGradient id="b" x1="69.691%" x2="16.723%" y1="-12.974%" y2="117.39%">
<stop stop-color="#FA816E" offset="0"></stop>
<stop stop-color="#F74A5C" offset=".41473"></stop>
<stop stop-color="#F51D2C" offset="1"></stop>
</linearGradient>
<linearGradient id="a" x1="68.128%" x2="30.44%" y1="-35.691%" y2="114.94%">
<stop stop-color="#FA8E7D" offset="0"></stop>
<stop stop-color="#F74A5C" offset=".51264"></stop>
<stop stop-color="#F51D2C" offset="1"></stop>
</linearGradient>
</defs>
<g fill="none" fill-rule="evenodd">
<g fill-rule="nonzero">
<path d="m116.85 4.5455-112.32 112.23c-6.0386 6.0336-6.0386 15.779 0 21.813l112.32 112.23c6.0386 6.0336 15.792 6.0336 21.83 0l47.095-47.056c5.408-5.4035 5.408-14.164 0-19.568-5.408-5.4035-14.176-5.4035-19.584 0l-35.702 35.673c-1.503 1.5018-3.7841 1.5018-5.2871 0l-89.696-89.623c-1.503-1.5018-1.503-3.781 0-5.2827l89.696-89.623c1.503-1.5018 3.7841-1.5018 5.2871 0l35.702 35.673c5.408 5.4035 14.176 5.4035 19.584 0 5.408-5.4035 5.408-14.164 0-19.568l-47.089-47.051c-6.0634-5.903-15.82-5.8552-21.836 0.15521z" fill="url(#d)"></path>
<path d="m116.85 4.5455-112.32 112.23c-6.0386 6.0336-6.0386 15.779 0 21.813l112.32 112.23c6.0386 6.0336 15.792 6.0336 21.83 0l47.095-47.056c5.408-5.4035 5.408-14.164 0-19.568-5.408-5.4035-14.176-5.4035-19.584 0l-35.702 35.673c-1.503 1.5018-3.7841 1.5018-5.2871 0l-89.696-89.623c-1.503-1.5018-1.503-3.781 0-5.2827l89.696-89.623c3.7424-3.2263 9.8485-9.7611 18.815-11.289 6.664-1.1359 13.95 1.3641 21.857 7.5-5.2864-5.2821-14.349-14.334-27.188-27.157-6.0634-5.903-15.82-5.8552-21.836 0.15521z" fill="url(#c)"></path>
<path d="m196.65 173.75c5.408 5.4035 14.176 5.4035 19.584 0l34.739-34.711c6.0386-6.0336 6.0386-15.779 7.07e-4 -21.812l-35.042-34.889c-5.4208-5.3971-14.192-5.3893-19.603 0.017395-5.408 5.4035-5.408 14.164 0 19.568l23.668 23.648c1.503 1.5018 1.503 3.781 0 5.2827l-23.347 23.328c-5.408 5.4035-5.408 14.164 0 19.568z" fill="url(#b)"></path>
<ellipse cx="128.33" cy="128.24" rx="30.327" ry="30.302" fill="url(#a)"></ellipse>
</g>
</g>
</svg>
