<svg width="22" height="18" viewBox="0 0 22 18" fill="none" xmlns="http://www.w3.org/2000/svg">
<path fill-rule="evenodd" clip-rule="evenodd" d="M7.43127e-05 2.98266C-8.78633e-05 2.99253 -0.000104211 3.00239 2.4801e-05 3.01225V15C2.4801e-05 16.6523 1.34774 18 3.00002 18H19C20.6523 18 22 16.6523 22 15V3.01236C22.0002 3.00242 22.0001 2.99247 22 2.98251C21.9905 1.33822 20.6465 0 19 0H3.00002C1.35352 0 0.0094652 1.3383 7.43127e-05 2.98266ZM2.1066 2.55395C2.27198 2.22692 2.61206 2 3.00002 2H19C19.388 2 19.7281 2.22692 19.8934 2.55395L11 8.77934L2.1066 2.55395ZM20 4.92066V15C20 15.5477 19.5477 16 19 16H3.00002C2.45231 16 2.00002 15.5477 2.00002 15V4.92066L10.4266 10.8192C10.7709 11.0603 11.2292 11.0603 11.5735 10.8192L20 4.92066Z" fill="white"/>
</svg>
